# xmcd CD database file
#
# Track frame offsets:
#	150
#	24741
#	48549
#	83102
#	116222
#	146575
#	173664
#	212016
#
# Disc length: 3364 seconds
#
# Revision: 0
# Processed by: cddbd v1.5.2PL0 Copyright (c) Steve Scherf et al.
# Submitted via: CDex 1.51
#
DISCID=6e0d2208
DTITLE=Various Artist - Zen Garden 2
DYEAR=2009
DGENRE=New Age
TTITLE0=Beauty and Mystery
TTITLE1=Temple Of Secrets
TTITLE2=Enlightenment
TTITLE3=See With Clarity
TTITLE4=Karesansui
TTITLE5=Rippling Waters
TTITLE6=Natural Elements
TTITLE7=West Meets East
EXTD=YEAR: 2009
EXTT0=
EXTT1=
EXTT2=
EXTT3=
EXTT4=
EXTT5=
EXTT6=
EXTT7=
PLAYORDER=
